<?xml version="1.0" encoding="utf-8"?>
<!-- Generator: Adobe Illustrator 16.0.0, SVG Export Plug-In . SVG Version: 6.00 Build 0)  -->
<!DOCTYPE svg PUBLIC "-//W3C//DTD SVG 1.1//EN" "http://www.w3.org/Graphics/SVG/1.1/DTD/svg11.dtd">
<svg version="1.1" id="Layer_1" xmlns="http://www.w3.org/2000/svg" xmlns:xlink="http://www.w3.org/1999/xlink" x="0px" y="0px"
	 width="128px" height="128px" viewBox="0 0 128 128" enable-background="new 0 0 128 128" xml:space="preserve">
<g>
	<g>
		<g>
			<rect id="Rectangle_8_" fill="#FF0000" width="128" height="128"/>
		</g>
	</g>
</g>
<g>
	<g>
		<path fill-rule="evenodd" clip-rule="evenodd" fill="#FFFFFF" d="M17.234,93.522c0.377-0.508,0.7-1.069,1.141-1.513
			c6.403-6.427,12.822-12.84,19.241-19.251c0.215-0.215,0.473-0.386,0.808-0.654c-0.988-1.002-1.895-1.882-2.757-2.802
			c-2.792-2.984-2.051-7.728,1.501-9.687c0.315-0.174,0.645-0.323,1.001-0.5c-0.953-2.093-1.014-4.154,0.157-6.139
			c1.173-1.987,3.024-2.915,5.262-3.089c0.098-0.551,0.152-1.036,0.274-1.501c0.653-2.5,2.647-4.259,5.222-4.567
			c0.551-0.065,0.763-0.239,0.835-0.812c0.313-2.487,1.68-4.23,4.024-5.07c2.338-0.838,4.524-0.409,6.348,1.313
			c1.236,1.167,2.373,2.44,3.715,3.834c0.505-0.568,0.883-1.037,1.305-1.462c1.52-1.537,3.079-3.034,4.575-4.595
			c1.939-2.026,4.206-2.908,6.929-1.961c2.674,0.928,3.971,2.967,4.224,5.766c3.716,0.406,5.794,2.485,6.217,6.188
			c3.994,0.718,5.596,2.323,6.202,6.218c0.458,0.082,0.939,0.138,1.401,0.252c4.557,1.125,6.273,6.649,3.136,10.135
			c-0.915,1.016-1.906,1.968-2.895,2.915c-0.401,0.383-0.528,0.682-0.262,1.24c1.168,2.447,1.722,5.049,1.87,7.754
			c0.024,0.395,0.293,0.848,0.583,1.14c4.094,4.13,8.213,8.233,12.315,12.354c0.425,0.426,0.774,0.925,1.159,1.391
			c0,0.365,0,0.73,0,1.095c-1.166,1.594-2.157,1.674-3.559,0.276c-1.935-1.934-3.864-3.872-5.974-5.983
			c-0.542,0.628-1,1.24-1.543,1.768c-0.833,0.812-1.847,0.817-2.604,0.09c-0.771-0.742-0.765-1.812,0.055-2.679
			c0.514-0.546,1.07-1.051,1.528-1.497c-1.383-1.392-2.685-2.698-3.931-3.954c-4.94,4.942-9.923,9.926-14.748,14.753
			c1.248,1.257,2.563,2.581,3.962,3.992c0.349-0.38,0.759-0.868,1.212-1.318c0.958-0.958,2.018-1.055,2.815-0.285
			c0.804,0.779,0.715,1.904-0.255,2.885c-0.463,0.467-0.958,0.901-1.614,1.512c0.425,0.312,0.727,0.477,0.963,0.711
			c4.353,4.341,8.698,8.689,13.045,13.038c1.394,1.398,1.3,2.426-0.314,3.546c-0.365,0-0.731,0-1.097,0
			c-0.481-0.41-0.996-0.789-1.441-1.233c-7.711-7.697-15.421-15.396-23.103-23.122c-0.562-0.565-1.093-0.714-1.843-0.643
			c-3.138,0.304-6.033-0.456-8.692-2.125c-0.875-0.55-1.731-1.132-2.594-1.701c-2.274-1.503-2.272-1.503-4.232,0.457
			c-9.039,9.039-18.076,18.077-27.115,27.115c-0.258,0.258-0.509,0.529-0.796,0.75c-0.751,0.574-1.772,0.502-2.412-0.142
			c-0.645-0.65-0.704-1.66-0.118-2.411c0.205-0.261,0.451-0.493,0.688-0.729c6.498-6.501,12.996-13.001,19.503-19.491
			c0.253-0.251,0.605-0.405,0.834-0.553c-4.526-4.524-8.842-8.84-13.248-13.244c-0.144,0.173-0.341,0.447-0.576,0.683
			c-4.236,4.243-8.476,8.483-12.716,12.721c-1.461,1.46-2.578,1.321-3.611-0.444C17.234,94.011,17.234,93.767,17.234,93.522z
			 M56.908,85.241c1.606-0.936,3.428-1.337,5.345-1.365c7.107-0.103,13.124-2.751,18.132-7.762c4.796-4.803,9.6-9.601,14.398-14.404
			c0.236-0.235,0.475-0.476,0.665-0.746c0.753-1.065,0.609-2.437-0.33-3.319c-0.898-0.845-2.26-0.927-3.263-0.167
			c-0.338,0.256-0.635,0.568-0.935,0.868c-1.79,1.784-3.579,3.569-5.36,5.36c-0.599,0.601-1.361,0.889-2.064,0.467
			c-0.505-0.302-1.019-0.955-1.09-1.51c-0.066-0.518,0.318-1.229,0.722-1.65c1.846-1.94,3.764-3.813,5.663-5.701
			c0.688-0.684,1.097-1.473,0.898-2.457c-0.191-0.964-0.76-1.65-1.71-1.96c-1.029-0.334-1.926-0.063-2.676,0.685
			c-1.923,1.909-3.827,3.836-5.759,5.736c-0.316,0.309-0.706,0.606-1.116,0.746c-0.795,0.272-1.623-0.109-2.036-0.818
			c-0.437-0.752-0.316-1.597,0.401-2.323c1.883-1.906,3.786-3.79,5.676-5.688c1.313-1.319,1.423-2.827,0.303-3.934
			c-1.111-1.095-2.607-0.965-3.934,0.353c-1.145,1.136-2.276,2.287-3.426,3.419c-0.97,0.957-2.005,1.034-2.81,0.233
			c-0.805-0.801-0.733-1.84,0.22-2.809c1.195-1.214,2.418-2.402,3.609-3.622c1.151-1.179,1.208-2.683,0.175-3.738
			c-1.062-1.086-2.589-1.033-3.799,0.159c-1.323,1.302-2.626,2.628-3.944,3.934c-0.751,0.745-1.52,1.471-2.234,2.163
			c0.085,0.184,0.094,0.216,0.113,0.237c0.117,0.138,0.238,0.274,0.36,0.41c1.704,1.886,2.185,4.062,1.316,6.435
			c-0.858,2.341-2.606,3.697-5.098,3.985c-0.623,0.072-0.707,0.376-0.769,0.878c-0.347,2.769-2.533,5.015-5.232,5.298
			c-0.697,0.073-0.897,0.323-0.982,0.976c-0.284,2.148-1.452,3.729-3.389,4.66c-0.805,0.388-1.721,0.538-2.436,0.753
			c-0.46,1.156-0.729,2.392-1.396,3.354c-0.682,0.984-1.752,1.699-2.594,2.479C49.894,78.225,53.378,81.709,56.908,85.241z
			 M91.778,69.916c-0.312,0.297-0.552,0.518-0.785,0.748c-2.931,2.923-5.82,5.884-8.796,8.76c-4.082,3.944-8.93,6.471-14.512,7.555
			c-0.961,0.186-1.928,0.333-2.969,0.512c2.308,1.922,5.51,2.705,8.494,2.083c0.958-0.2,1.734-0.024,2.385,0.719
			c0.456,0.517,0.944,1.004,1.385,1.468c0.198-0.106,0.263-0.124,0.303-0.164c5.146-5.14,10.291-10.278,15.428-15.427
			c0.155-0.156,0.313-0.413,0.304-0.613C92.939,73.638,92.588,71.779,91.778,69.916z M37.13,78.618
			c4.25,4.247,8.568,8.56,12.772,12.761c1.264-1.258,2.583-2.571,3.8-3.782c-4.227-4.227-8.525-8.526-12.779-12.78
			C39.677,76.065,38.371,77.374,37.13,78.618z M49.8,65.253c1.459-0.008,2.251-0.485,2.724-1.45c0.485-0.988,0.316-2.06-0.54-2.933
			c-2.132-2.168-4.28-4.323-6.452-6.451c-1.118-1.096-2.651-1.092-3.673-0.072c-1.01,1.007-1.004,2.573,0.08,3.676
			c2.11,2.148,4.23,4.287,6.398,6.376C48.809,64.853,49.498,65.082,49.8,65.253z M65.347,50.171c-0.36-0.604-0.625-1.304-1.1-1.797
			c-2.045-2.124-4.146-4.196-6.244-6.271c-1.145-1.134-2.702-1.184-3.739-0.16c-1.042,1.027-1.004,2.584,0.119,3.74
			c0.952,0.983,1.931,1.939,2.898,2.906c1.183,1.182,2.354,2.377,3.558,3.54c0.827,0.8,1.823,0.96,2.863,0.488
			C64.68,52.173,65.146,51.359,65.347,50.171z M58.988,56.182c-0.162-0.311-0.348-0.997-0.78-1.446
			c-2.152-2.233-4.35-4.424-6.57-6.589c-1.058-1.032-2.625-0.976-3.605,0.024c-0.972,0.994-0.96,2.525,0.058,3.61
			c0.645,0.687,1.327,1.339,1.994,2.005c1.506,1.505,3.003,3.017,4.521,4.509c0.821,0.808,1.806,0.986,2.856,0.537
			C58.454,58.407,58.923,57.593,58.988,56.182z M43.62,71.456c1.452-0.016,2.252-0.495,2.708-1.46
			c0.496-1.044,0.312-2.036-0.474-2.857c-1.238-1.293-2.507-2.559-3.792-3.806c-1.159-1.125-2.694-1.127-3.733-0.057
			c-0.98,1.01-0.941,2.558,0.14,3.675c1.203,1.243,2.408,2.488,3.682,3.656C42.636,71.052,43.314,71.284,43.62,71.456z"/>
		<path fill-rule="evenodd" clip-rule="evenodd" fill="#FFFFFF" d="M40.069,24.836c0.984,0.536,1.342,1.35,1.298,2.474
			c-0.071,1.787-0.011,3.579-0.022,5.369c-0.007,1.31-0.741,2.119-1.87,2.092c-1.086-0.025-1.772-0.819-1.778-2.092
			c-0.01-1.79,0.049-3.582-0.021-5.369c-0.045-1.124,0.312-1.938,1.297-2.474C39.339,24.836,39.704,24.836,40.069,24.836z"/>
		<path fill-rule="evenodd" clip-rule="evenodd" fill="#FFFFFF" d="M89.027,24.836c0.981,0.537,1.34,1.351,1.296,2.475
			c-0.069,1.787-0.01,3.579-0.02,5.369c-0.009,1.309-0.745,2.118-1.873,2.091c-1.085-0.026-1.77-0.819-1.776-2.093
			c-0.01-1.79,0.05-3.582-0.021-5.369c-0.045-1.124,0.31-1.94,1.298-2.473C88.296,24.836,88.662,24.836,89.027,24.836z"/>
		<path fill-rule="evenodd" clip-rule="evenodd" fill="#FFFFFF" d="M17.234,46.575c0.535-0.987,1.35-1.343,2.474-1.298
			c1.788,0.071,3.58,0.012,5.37,0.021c1.275,0.007,2.069,0.691,2.094,1.776c0.026,1.128-0.783,1.864-2.092,1.872
			c-1.79,0.011-3.582-0.048-5.369,0.022c-1.124,0.043-1.939-0.314-2.476-1.298C17.234,47.305,17.234,46.94,17.234,46.575z"/>
		<path fill-rule="evenodd" clip-rule="evenodd" fill="#FFFFFF" d="M110.767,47.671c-0.541,0.979-1.353,1.343-2.478,1.298
			c-1.786-0.071-3.579-0.011-5.37-0.022c-1.305-0.008-2.118-0.747-2.093-1.872c0.026-1.083,0.823-1.77,2.096-1.776
			c1.79-0.01,3.583,0.051,5.369-0.022c1.126-0.045,1.938,0.317,2.476,1.299C110.767,46.94,110.767,47.305,110.767,47.671z"/>
		<path fill-rule="evenodd" clip-rule="evenodd" fill="#FFFFFF" d="M107.524,30.205c-0.115,0.202-0.283,0.713-0.623,1.057
			c-2.771,2.814-5.565,5.605-8.37,8.384c-0.85,0.841-1.933,0.856-2.681,0.112c-0.75-0.745-0.741-1.833,0.1-2.68
			c2.779-2.806,5.582-5.589,8.37-8.383c0.626-0.626,1.361-0.815,2.166-0.464C107.183,28.535,107.539,29.119,107.524,30.205z"/>
		<path fill-rule="evenodd" clip-rule="evenodd" fill="#FFFFFF" d="M22.553,28.064c0.227,0.129,0.769,0.304,1.132,0.66
			c2.796,2.746,5.564,5.52,8.322,8.303c0.885,0.893,0.906,1.99,0.125,2.749c-0.755,0.732-1.82,0.703-2.681-0.15
			c-2.805-2.779-5.589-5.581-8.381-8.374c-0.598-0.597-0.779-1.314-0.463-2.087C20.894,28.464,21.462,28.081,22.553,28.064z"/>
		<path fill-rule="evenodd" clip-rule="evenodd" fill="#FFFFFF" d="M92.528,90.376c1.011-0.001,1.798,0.772,1.808,1.775
			c0.01,0.994-0.776,1.816-1.763,1.844c-1,0.027-1.887-0.847-1.873-1.844C90.712,91.169,91.528,90.377,92.528,90.376z"/>
	</g>
</g>
<g>
	<g enable-background="new    ">
		<text transform="matrix(1 0 0 1 12.835 20.9316)" fill="#FFFFFF" font-family="'Impact'" font-size="15.0047">RB Theme Helper</text>
	</g>
</g>
</svg>
